<?xml version="1.0" encoding="UTF-8"?>
<svg id="Ebene_2" data-name="Ebene 2" xmlns="http://www.w3.org/2000/svg" viewBox="0 0 136.48 79.54">
  <defs>
    <style>
      .cls-1 {
        fill: #fff;
      }

      .cls-2 {
        fill: #b3b3b3;
      }
    </style>
  </defs>
  <g id="Ebene_1-2" data-name="Ebene 1">
    <g>
      <g>
        <path class="cls-1" d="M23.73,35.84c-8.01,0-13.7-5.63-13.7-13.7s5.69-13.7,13.7-13.7c4.28,0,7.89,1.71,10.76,5.01l6.36-5.87C36.82,2.69,30.64,0,23.24,0,9.91,0,0,9.23,0,22.14s9.91,22.13,23.18,22.13c7.46,0,13.64-2.69,17.67-7.64l-6.36-5.87c-2.87,3.36-6.48,5.08-10.76,5.08Z"/>
        <path class="cls-1" d="M83.53,31.21l-1.93-4.31-1.9-4.24L69.9.73h-9.79l-19.08,42.81h10.15l3.8-9.17h19.87l.56,1.34s0,0,0,.01l3.23,7.82h10.4l-5.51-12.33ZM58.16,26.84l6.79-16.39,5.97,14.42.81,1.97h-13.57Z"/>
        <path class="cls-1" d="M121.82,29.78c3.97-1.7,6.76-4.59,8.02-8.45.52-1.54.78-3.23.78-5.07,0-.1,0-.21-.01-.31-.02-1.6-.25-3.1-.67-4.48-2.02-6.74-8.52-10.74-17.91-10.74h-18.53v42.81h9.91v-11.93h9.11l8.26,11.93h10.64l-9.6-13.76ZM118.28,21.76s-.02.02-.04.03c-1.52,1.25-3.77,1.94-6.76,1.94h-8.07v-14.93h8.07c2.76,0,4.9.57,6.41,1.66,1.8,1.26,2.7,3.24,2.7,5.8,0,2.34-.77,4.22-2.31,5.5Z"/>
      </g>
      <g>
        <path class="cls-1" d="M19.01,73.3c-.95.75-2.2,1.09-3.5,1.09-2.4,0-3.7-1.39-3.7-3.99v-12.7h7.15v-4.99h-7.15v-6.1h-6.25v6.1H1.17v4.99h4.39v12.85c0,5.89,3.35,8.99,9.2,8.99,2.25,0,4.5-.6,6-1.8l-1.75-4.44Z"/>
        <path class="cls-1" d="M31.85,56.4v-3.89h-5.95v26.68h6.25v-12.94c0-5.45,2.99-8.25,7.74-8.25.45,0,.9.05,1.45.15v-5.94c-4.45,0-7.7,1.4-9.49,4.19Z"/>
        <path class="cls-1" d="M56.68,52.21c-4.3,0-8.45,1.1-11.29,3.3l2.44,4.54c2-1.65,5.1-2.65,8.1-2.65,4.45,0,6.65,2.15,6.65,5.8v.4h-6.9c-8.1,0-11.09,3.5-11.09,7.95s3.84,7.99,9.94,7.99c4,0,6.9-1.3,8.4-3.6v3.25h5.89v-15.64c0-7.7-4.45-11.34-12.14-11.34ZM62.58,70.85c-1.05,2.74-3.7,4.14-6.75,4.14-3.2,0-5.1-1.44-5.1-3.69,0-1.95,1.15-3.55,5.4-3.55h6.45v3.1Z"/>
        <path class="cls-1" d="M96.95,46.3v9.5c-2.1-2.44-5.14-3.59-8.59-3.59-7.75,0-13.5,5.34-13.5,13.64s5.75,13.69,13.5,13.69c3.64,0,6.74-1.25,8.84-3.8v3.45h6v-32.89h-6.25ZM89.11,74.2c-4.5,0-7.95-3.25-7.95-8.35s3.45-8.35,7.95-8.35,7.94,3.25,7.94,8.35-3.45,8.35-7.94,8.35Z"/>
        <path class="cls-1" d="M136.48,66c0-8.35-5.7-13.79-13.5-13.79s-13.79,5.69-13.79,13.64,5.8,13.69,14.74,13.69c4.6,0,8.35-1.5,10.75-4.35l-3.35-3.84c-1.9,1.95-4.25,2.89-7.25,2.89-4.65,0-7.89-2.49-8.64-6.39h20.94c.04-.6.1-1.35.1-1.85ZM115.39,63.7c.6-3.9,3.54-6.5,7.59-6.5s7.05,2.65,7.55,6.5h-15.14Z"/>
      </g>
      <g>
        <path class="cls-2" d="M121.82,29.78c3.97-1.7,6.76-4.59,8.02-8.45l-7.19.25v-6.35c2.57.09,5.21.34,7.96.72-.02-1.6-.25-3.1-.67-4.48-4.06-.55-8.28-.95-12.05-1.01,1.8,1.26,2.7,3.24,2.7,5.8,0,2.34-.77,4.22-2.31,5.5v.03h-.04c-1.52,1.25-3.77,1.94-6.76,1.94h-8.07v-1.44l-4.59.16-1.53-.44c1.91-1.24,3.94-2.36,6.12-3.42v-4.9c-5.08,2.35-7.99,4.25-9.91,5.54v12.53c1.95,2.35,3.13,5.36,3.13,8.62,0,1.02-.13,2.18-.4,3.16h7.18v-11.93h9.11l8.26,11.93h10.64l-9.6-13.76ZM70.92,24.87l.81,1.97h-4.42c-2.06,2.22-3.22,4.72-3.62,7.53h7.26c2.02-4.04,6-6.96,10.65-7.47l-1.9-4.24c-3.07.64-5.99,1.38-8.78,2.21Z"/>
        <path class="cls-2" d="M89.04,43.54h-10.4l-3.23-7.82s0-.01,0-.01c1.61-2.69,4.55-4.51,7.88-4.51.08,0,.16,0,.24.01l5.51,12.33Z"/>
      </g>
    </g>
  </g>
</svg>