<?xml version="1.0" encoding="UTF-8"?>
<svg id="Ebene_2" data-name="Ebene 2" xmlns="http://www.w3.org/2000/svg" viewBox="0 0 446.96 108.76">
  <defs>
    <style>
      .cls-1 {
        fill: #ccc;
      }
    </style>
  </defs>
  <g id="Ebene_1-2" data-name="Ebene 1">
    <g>
      <g>
        <path class="cls-1" d="M0,1.95h71.31v17.23H18.73v23.82h43.3v17.23H18.73v29.51h52.58v17.23l-71.31-.15V1.95Z"/>
        <path class="cls-1" d="M78.8,1.95h18.73v87.64h50.64v17.23h-69.36V1.95Z"/>
        <path class="cls-1" d="M154.9,1.95h71.31v17.23h-52.58v23.82h43.3v17.23h-43.3v29.51h52.58v17.23l-71.31-.15V1.95Z"/>
        <path class="cls-1" d="M282.09,0c18.58,0,32.81,7.04,42.4,19.03l-15.28,10.49c-6.29-7.79-15.28-12.28-27.12-12.28-21.57,0-34.16,14.38-34.16,37.15s12.58,37.15,34.16,37.15c8.99,0,16.48-2.4,22.02-6.59v-17.98h-22.02v-17.23h40.75v41.95c-8.09,10.19-22.17,17.08-40.75,17.08-32.66,0-52.88-21.72-52.88-54.38S249.43,0,282.09,0Z"/>
        <path class="cls-1" d="M362.69,1.95h19.62l35.95,104.87h-19.62l-8.69-27.71h-34.91l-8.69,27.71h-19.62L362.69,1.95ZM384.41,61.87l-11.98-38.05-11.99,38.05h23.97Z"/>
      </g>
      <rect class="cls-1" x="431.27" y="93.07" width="13" height="13" transform="translate(198.63 -280.39) rotate(45)"/>
    </g>
  </g>
</svg>